<?xml version="1.0" encoding="UTF-8"?>
<svg xmlns="http://www.w3.org/2000/svg" xmlns:xlink="http://www.w3.org/1999/xlink" width="198.231201pt" height="198.231201pt" viewBox="0 0 198.231201 198.231201" version="1.1">
<g id="surface1">
<path style=" stroke:none;fill-rule:nonzero;fill:rgb(100%,100%,100%);fill-opacity:1;" d="M 179.023438 98.316406 C 176.371094 98.316406 174.222656 100.464844 174.222656 103.117188 L 174.222656 188.632812 L 122.714844 188.632812 L 122.714844 134.949219 C 122.714844 132.300781 120.566406 130.152344 117.914062 130.152344 L 80.316406 130.152344 C 77.664062 130.152344 75.515625 132.300781 75.515625 134.949219 L 75.515625 177.515625 C 75.515625 180.167969 77.664062 182.316406 80.316406 182.316406 C 82.964844 182.316406 85.117188 180.167969 85.117188 177.515625 L 85.117188 139.75 L 113.117188 139.75 L 113.117188 188.632812 L 24.007812 188.632812 L 24.007812 71.144531 L 99.113281 10.953125 L 176.019531 72.585938 C 178.089844 74.242188 181.109375 73.90625 182.769531 71.839844 C 184.425781 69.769531 184.09375 66.75 182.023438 65.09375 L 102.117188 1.054688 C 100.363281 -0.351562 97.867188 -0.351562 96.113281 1.054688 L 16.207031 65.09375 C 15.070312 66.003906 14.40625 67.378906 14.40625 68.839844 L 14.40625 193.429688 C 14.40625 196.082031 16.558594 198.230469 19.207031 198.230469 L 179.023438 198.230469 C 181.675781 198.230469 183.824219 196.082031 183.824219 193.429688 L 183.824219 103.117188 C 183.824219 100.464844 181.675781 98.316406 179.023438 98.316406 Z M 179.023438 98.316406 "/>
</g>
</svg>
