<svg xmlns="http://www.w3.org/2000/svg" xmlns:xlink="http://www.w3.org/1999/xlink" version="1.1" style="enable-background:new 0 0 426.667 426.667;" xml:space="preserve" width="426.667" height="426.667"><rect id="backgroundrect" width="100%" height="100%" x="0" y="0" fill="none" stroke="none"/>
















<g class="currentLayer"><title>Layer 1</title><g id="svg_1" class="selected" fill="#eb1c23" fill-opacity="1">
	<path style="" d="M197.918,309.218c-17.173,0-31.023,13.833-31.023,31.023c0,17.084,13.85,30.959,31.023,30.959   c17.101,0,31.031-13.875,31.031-30.959C228.949,323.051,215.019,309.218,197.918,309.218z" id="svg_2" fill="#eb1c23" fill-opacity="1"/>
	<path style="" d="M324.356,309.218c-17.143,0-31.019,13.833-31.019,31.023c0,17.084,13.875,30.959,31.019,30.959   c17.101,0,31.01-13.875,31.01-30.959C355.366,323.051,341.457,309.218,324.356,309.218z" id="svg_3" fill="#eb1c23" fill-opacity="1"/>
	<polygon style="" points="349.675,171.213 172.548,171.213 179.618,194.487 342.66,194.487  " id="svg_4" fill="#eb1c23" fill-opacity="1"/>
	<polygon style="" points="328.585,240.96 335.616,217.728 186.684,217.728 193.741,240.96  " id="svg_5" fill="#eb1c23" fill-opacity="1"/>
	<polygon style="" points="155.2,113.707 165.457,148.002 380.442,148.002 345.391,264.081 176.977,264.081    113.783,55.467 0,55.467 0,89.502 88.269,89.502 151.607,298.355 370.65,298.355 426.667,113.707  " id="svg_6" fill="#eb1c23" fill-opacity="1"/>
</g><g id="svg_7">
</g><g id="svg_8">
</g><g id="svg_9">
</g><g id="svg_10">
</g><g id="svg_11">
</g><g id="svg_12">
</g><g id="svg_13">
</g><g id="svg_14">
</g><g id="svg_15">
</g><g id="svg_16">
</g><g id="svg_17">
</g><g id="svg_18">
</g><g id="svg_19">
</g><g id="svg_20">
</g><g id="svg_21">
</g></g></svg>