<?xml version="1.0" standalone="no"?>
<!DOCTYPE svg PUBLIC "-//W3C//DTD SVG 20010904//EN"
 "http://www.w3.org/TR/2001/REC-SVG-20010904/DTD/svg10.dtd">
<svg version="1.0" xmlns="http://www.w3.org/2000/svg"
 width="700.000000pt" height="700.000000pt" viewBox="0 0 700.000000 700.000000"
 preserveAspectRatio="xMidYMid meet">
<metadata>
Created by potrace 1.11, written by Peter Selinger 2001-2013
</metadata>
<g transform="translate(0.000000,700.000000) scale(0.100000,-0.100000)"
fill="#000000" stroke="none">
<path d="M3435 6987 c-16 -8 -138 -100 -270 -206 -289 -232 -259 -208 -320
-256 -27 -21 -54 -44 -60 -49 -5 -6 -51 -43 -101 -82 -50 -40 -100 -79 -110
-87 -10 -9 -59 -48 -109 -88 -49 -39 -108 -86 -130 -104 -22 -18 -258 -208
-525 -421 -542 -434 -1047 -839 -1070 -857 -8 -7 -53 -43 -100 -80 -50 -41
-94 -85 -107 -109 l-23 -41 0 -2241 0 -2241 23 -39 c14 -25 39 -48 66 -62 l43
-23 2858 0 2858 0 43 22 c29 16 50 37 66 67 l23 43 0 1635 c0 1630 0 1634 -21
1671 -61 110 -207 117 -286 14 l-28 -36 -2 -1506 c-1 -828 -2 -1521 -3 -1538
l0 -33 -908 0 -908 0 0 968 c0 1029 2 986 -48 1040 -52 58 -20 56 -775 57
-734 0 -738 0 -788 -47 -59 -55 -56 -11 -56 -873 0 -785 0 -790 21 -831 61
-120 236 -119 300 1 15 27 17 106 18 715 1 377 2 687 3 690 1 3 222 5 493 5
l492 0 0 -863 1 -862 -1572 0 -1573 0 0 63 c0 79 0 3883 0 3999 l0 87 122 98
c68 54 132 106 143 115 17 14 281 226 325 261 37 29 116 92 127 102 15 12 -45
-36 493 395 435 348 758 607 790 633 8 7 116 93 240 192 124 99 234 187 245
197 50 42 161 128 165 128 3 0 48 -35 101 -77 52 -43 112 -91 133 -108 21 -16
113 -90 205 -164 91 -73 181 -145 200 -160 18 -14 50 -39 70 -56 21 -16 54
-43 75 -60 21 -16 80 -63 130 -104 50 -40 107 -86 126 -101 355 -285 974 -780
1000 -801 19 -16 187 -150 372 -298 298 -239 342 -270 381 -276 133 -20 234
107 183 229 -15 35 -40 63 -101 111 -21 17 -68 54 -104 83 -36 29 -79 64 -96
77 -16 13 -60 47 -96 77 -36 29 -81 64 -99 78 -18 14 -38 30 -44 36 -6 5 -283
228 -616 494 -333 266 -610 489 -616 494 -6 6 -26 22 -44 36 -29 22 -115 90
-240 191 -104 84 -330 265 -364 293 -22 17 -65 51 -96 76 -30 25 -76 61 -100
80 -25 19 -52 40 -60 47 -8 6 -42 34 -75 60 -33 26 -69 56 -80 66 -63 57 -152
80 -210 54z"/>
</g>
</svg>
